<svg width="16" height="16" viewBox="0 0 16 16" fill="none" xmlns="http://www.w3.org/2000/svg">
<g clip-path="url(#clip0_15_155)">
<path d="M6.96779 13.6911C5.77702 12.2004 3.12857 8.58752 3.12857 6.55817C3.12857 4.09601 5.08947 2.1001 7.50843 2.1001C9.92648 2.1001 11.8883 4.09601 11.8883 6.55817C11.8883 8.58752 9.21931 12.2004 8.04907 13.6911C7.76849 14.0463 7.24838 14.0463 6.96779 13.6911ZM7.50843 8.0442C8.31369 8.0442 8.96839 7.37781 8.96839 6.55817C8.96839 5.73854 8.31369 5.07215 7.50843 5.07215C6.70318 5.07215 6.04848 5.73854 6.04848 6.55817C6.04848 7.37781 6.70318 8.0442 7.50843 8.0442Z" fill="#0E0F1D"/>
</g>
<defs>
<clipPath id="clip0_15_155">
<rect width="8.75972" height="11.8882" fill="white" transform="translate(3.12857 2.1001)"/>
</clipPath>
</defs>
</svg>
