<svg width="16" height="16" viewBox="0 0 16 16" fill="none" xmlns="http://www.w3.org/2000/svg">
<path d="M2.90582 3.19873H12.8544C13.7929 3.19873 14.2659 3.64172 14.2659 4.54272V10.8647C14.2659 11.7582 13.7929 12.2087 12.8544 12.2087H2.90582C1.96728 12.2087 1.49426 11.7582 1.49426 10.8647V4.54272C1.49426 3.64172 1.96728 3.19873 2.90582 3.19873ZM7.87634 9.6559L12.937 5.50379C13.1172 5.35362 13.2598 5.00824 13.0346 4.7004C12.8168 4.39256 12.4189 4.38505 12.1561 4.57276L7.87634 7.47097L3.6041 4.57276C3.34131 4.38505 2.94336 4.39256 2.72562 4.7004C2.50037 5.00824 2.64303 5.35362 2.82323 5.50379L7.87634 9.6559Z" fill="#0E0F1D"/>
</svg>
